<svg xmlns="http://www.w3.org/2000/svg" viewBox="0 0 100 50" width="100%" height="100%">
  <!-- Simplified running horse silhouette to act as a placeholder Mustang logo -->
  <path fill="currentColor" d="M85.4,18.6c-4.2-1.3-8.8-1.5-13.1-0.2c-2.5,0.8-4.9,2.1-7.1,3.7c-2.4-0.6-5.1-0.8-7.6-0.5
    c-3.6,0.4-7.2,1.7-10.2,3.8c-2.7-1.1-5.7-1.4-8.6-0.9c-8.9,1.5-16.7,6.9-22,14.6c-1.1,1.6-2,3.3-2.6,5.1C13.6,46,12.7,48,11.5,50
    h12.5c0.4-1.2,0.9-2.3,1.6-3.4c2.6-4.2,6.5-7.6,11.1-9.6c2.5,0.7,5.2,0.9,7.8,0.5c3.2-0.5,6.3-2,8.7-4.1c1.8,0.3,3.6,0.2,5.3-0.3
    c3-0.8,5.7-2.3,8-4.3c2.2,0.6,4.5,0.8,6.8,0.4C77.4,28.4,81.6,24.1,85.4,18.6z M27.8,36.9c-1.2,1.3-2.6,2.4-4,3.4
    c-0.8-1.6-1.5-3.3-1.8-5C23.6,35.9,25.6,36.5,27.8,36.9z M48.7,30.3c-1.8,1.2-3.8,2-5.9,2.4c-1.5-1.1-3-2-4.6-2.8
    c1.8-1.7,3.9-3.1,6.1-4c1.1,0.5,2.1,1.1,3.1,1.8C47.8,28.6,48.2,29.4,48.7,30.3z M66.9,24.4c-1.3,1-2.8,1.8-4.3,2.4
    c-1.2-0.8-2.5-1.5-3.8-2.2c1.4-1.2,2.9-2.2,4.5-3c0.9,0.4,1.7,0.9,2.5,1.4C66.1,23.4,66.5,23.9,66.9,24.4z"/>
</svg>